<svg width="1920" height="668" viewBox="0 0 1920 668" fill="none" xmlns="http://www.w3.org/2000/svg">
<path d="M360 460.102C428.912 444.084 639.961 427.758 932.859 490.597C1225.76 553.434 1472.99 470.575 1560 421.291" stroke="#FFBA08" stroke-width="3.70739"/>
<path d="M360 460.102C470.107 467.801 772.32 444.393 841.617 515.547C936.243 612.708 1335.94 445.707 1380.98 460.102C1426.03 474.495 1495.32 507.23 1560 421.291" stroke="#D00000" stroke-width="3.70739"/>
<path d="M360 460.102C462.542 466.23 741.533 444.354 813.699 508.57C908.662 596.193 1280.99 447.054 1336.17 463.151C1406 482.389 1493.08 503.565 1560 421.291" stroke="#D51301" stroke-width="3.70739"/>
<path d="M360 460.102C454.977 464.66 710.744 444.315 785.779 501.593C881.08 579.676 1226.03 448.401 1291.36 466.201C1385.97 490.282 1490.86 499.898 1560 421.291" stroke="#D92502" stroke-width="3.70739"/>
<path d="M360 460.102C447.412 463.089 679.958 444.277 757.862 494.616C853.497 563.161 1171.08 449.748 1246.54 469.25C1365.94 498.176 1488.62 496.233 1560 421.291" stroke="#DE3802" stroke-width="3.70739"/>
<path d="M360 460.102C439.847 461.518 649.171 444.238 729.944 487.639C825.917 546.644 1116.13 451.096 1201.73 472.3C1345.92 506.071 1486.38 492.568 1560 421.291" stroke="#E34A03" stroke-width="3.70739"/>
<path d="M360 460.102C432.282 459.947 618.382 444.2 702.026 480.663C798.334 530.129 1061.17 452.441 1156.92 475.349C1325.89 513.965 1484.17 488.902 1560 421.291" stroke="#E85D04" stroke-width="3.70739"/>
<path d="M360 460.102C424.717 458.376 587.596 444.161 674.107 473.686C770.751 513.613 1006.22 453.789 1112.11 478.399C1305.86 521.858 1481.92 485.237 1560 421.291" stroke="#EC7005" stroke-width="3.70739"/>
<path d="M360 460.102C417.152 456.805 556.809 444.123 646.189 466.709C743.168 497.096 951.269 455.136 1067.3 481.448C1285.84 529.752 1479.68 481.572 1560 421.291" stroke="#F18206" stroke-width="3.70739"/>
<path d="M360 460.102C409.587 455.234 526.02 444.084 618.271 459.732C715.588 480.581 896.316 456.483 1022.48 484.498C1265.81 537.645 1477.47 477.905 1560 421.291" stroke="#F69506" stroke-width="3.70739"/>
<path d="M360 460.102C402.022 453.663 495.234 444.045 590.354 452.756C688.005 464.064 841.363 457.831 977.671 487.547C1245.78 545.538 1475.23 474.24 1560 421.291" stroke="#FAA707" stroke-width="3.70739"/>
<path d="M448.582 236.588L460.437 239.583C457.952 249.32 453.471 256.755 446.993 261.889C440.556 266.981 432.672 269.528 423.342 269.528C413.686 269.528 405.823 267.572 399.753 263.661C393.723 259.709 389.119 254.005 385.941 246.55C382.804 239.094 381.236 231.088 381.236 222.532C381.236 213.203 383.008 205.075 386.553 198.149C390.138 191.182 395.21 185.906 401.77 182.321C408.37 178.695 415.622 176.882 423.526 176.882C432.489 176.882 440.026 179.163 446.137 183.726C452.248 188.289 456.506 194.706 458.91 202.976L447.237 205.727C445.159 199.208 442.144 194.462 438.193 191.487C434.241 188.513 429.27 187.026 423.281 187.026C416.396 187.026 410.631 188.676 405.986 191.976C401.383 195.276 398.144 199.717 396.269 205.299C394.395 210.84 393.458 216.564 393.458 222.471C393.458 230.09 394.558 236.751 396.758 242.455C398.999 248.118 402.462 252.355 407.147 255.166C411.833 257.978 416.905 259.383 422.364 259.383C429.005 259.383 434.628 257.468 439.231 253.639C443.835 249.809 446.952 244.125 448.582 236.588ZM508.763 268V188.982H479.245V178.409H550.258V188.982H520.618V268H508.763ZM568.455 178.409H580.433L609.644 233.288L635.189 178.409H646.984L613.372 248.077C609.176 256.796 605.733 262.5 603.044 265.189C600.355 267.878 596.505 269.222 591.494 269.222C588.438 269.222 584.69 268.509 580.249 267.083V256.939C583.427 258.772 586.788 259.689 590.333 259.689C593.226 259.689 595.711 258.772 597.789 256.939C599.907 255.065 602.229 250.827 604.755 244.227L568.455 178.409ZM674.592 178.409H729.104V257.428H737.171V288.9H726.599V268H667.381V288.9H656.808V257.428H663.775C670.986 246.55 674.592 224.57 674.592 191.487V178.409ZM717.248 188.982H686.02V193.565C686.02 201.184 685.327 211.614 683.942 224.855C682.598 238.055 679.929 248.913 675.937 257.428H717.248V188.982ZM766.551 268V178.409H831.331V188.982H778.407V216.421H827.969V226.933H778.407V257.428H833.408V268H766.551ZM865.172 268V178.409H877.028V215.199H923.595V178.409H935.451V268H923.595V225.771H877.028V268H865.172ZM1034.19 268H1022.34V231.883C1011.7 235.835 1002.4 237.811 994.41 237.811C988.177 237.811 982.676 236.364 977.91 233.472C973.143 230.538 969.945 226.831 968.315 222.349C966.726 217.868 965.932 212.001 965.932 204.749V178.409H977.787V203.649C977.787 213.427 979.56 219.864 983.104 222.96C986.689 226.016 990.988 227.544 995.999 227.544C1004.35 227.544 1013.13 225.69 1022.34 221.982V178.409H1034.19V268ZM1069.01 268V178.409H1133.79V188.982H1080.87V216.421H1130.43V226.933H1080.87V257.428H1135.87V268H1069.01ZM1231.19 236.588L1243.05 239.583C1240.56 249.32 1236.08 256.755 1229.6 261.889C1223.16 266.981 1215.28 269.528 1205.95 269.528C1196.3 269.528 1188.43 267.572 1182.36 263.661C1176.33 259.709 1171.73 254.005 1168.55 246.55C1165.41 239.094 1163.85 231.088 1163.85 222.532C1163.85 213.203 1165.62 205.075 1169.16 198.149C1172.75 191.182 1177.82 185.906 1184.38 182.321C1190.98 178.695 1198.23 176.882 1206.13 176.882C1215.1 176.882 1222.64 179.163 1228.75 183.726C1234.86 188.289 1239.12 194.706 1241.52 202.976L1229.85 205.727C1227.77 199.208 1224.75 194.462 1220.8 191.487C1216.85 188.513 1211.88 187.026 1205.89 187.026C1199.01 187.026 1193.24 188.676 1188.6 191.976C1183.99 195.276 1180.75 199.717 1178.88 205.299C1177 210.84 1176.07 216.564 1176.07 222.471C1176.07 230.09 1177.17 236.751 1179.37 242.455C1181.61 248.118 1185.07 252.355 1189.76 255.166C1194.44 257.978 1199.51 259.383 1204.97 259.383C1211.61 259.383 1217.24 257.468 1221.84 253.639C1226.44 249.809 1229.56 244.125 1231.19 236.588ZM1272.92 178.409H1284.77V217.643C1290.19 217.643 1294 216.605 1296.2 214.527C1298.4 212.408 1301.21 207.356 1304.63 199.371C1307.12 193.504 1309.16 189.369 1310.74 186.965C1312.37 184.521 1314.68 182.483 1317.65 180.854C1320.62 179.183 1323.9 178.348 1327.49 178.348C1332.05 178.348 1334.46 178.389 1334.7 178.47V188.737C1334.29 188.737 1333.5 188.717 1332.32 188.676C1331.01 188.635 1330.22 188.615 1329.93 188.615C1326.14 188.615 1323.33 189.532 1321.5 191.365C1319.63 193.199 1317.49 197.11 1315.08 203.099C1312.07 210.677 1309.52 215.464 1307.44 217.46C1305.37 219.416 1302.88 220.984 1299.99 222.166C1305.77 223.755 1311.48 229.092 1317.1 238.177L1335.56 268H1320.83L1305.86 243.677C1301.74 236.955 1298.3 232.351 1295.53 229.866C1292.76 227.34 1289.17 226.077 1284.77 226.077V268H1272.92V178.409ZM1360.9 178.409H1371.66V249.361L1419.33 178.409H1431.24V268H1420.49V197.232L1372.76 268H1360.9V178.409ZM1465.88 178.409H1476.64V249.361L1524.3 178.409H1536.22V268H1525.46V197.232L1477.74 268H1465.88V178.409ZM1510.43 157.081H1517.95C1517.34 162.174 1515.46 166.085 1512.32 168.815C1509.23 171.544 1505.09 172.909 1499.92 172.909C1494.7 172.909 1490.53 171.565 1487.39 168.876C1484.29 166.146 1482.44 162.215 1481.83 157.081H1489.35C1489.92 159.852 1491.04 161.929 1492.71 163.315C1494.42 164.659 1496.7 165.331 1499.55 165.331C1502.85 165.331 1505.34 164.679 1507.01 163.376C1508.72 162.031 1509.86 159.933 1510.43 157.081ZM572.618 322.409H584.473V361.643C589.892 361.643 593.701 360.605 595.901 358.527C598.101 356.408 600.913 351.356 604.335 343.371C606.82 337.504 608.857 333.369 610.446 330.965C612.076 328.521 614.378 326.483 617.352 324.854C620.326 323.183 623.606 322.348 627.191 322.348C631.754 322.348 634.158 322.389 634.402 322.47V332.737C633.995 332.737 633.2 332.717 632.019 332.676C630.715 332.635 629.921 332.615 629.635 332.615C625.846 332.615 623.035 333.532 621.202 335.365C619.328 337.199 617.189 341.11 614.785 347.099C611.77 354.677 609.224 359.464 607.146 361.46C605.068 363.416 602.583 364.984 599.69 366.166C605.476 367.755 611.18 373.092 616.802 382.177L635.258 412H620.53L605.557 387.677C601.442 380.955 598 376.351 595.229 373.866C592.459 371.34 588.874 370.077 584.473 370.077V412H572.618V322.409ZM666.96 322.409H723.062V412H711.206V332.982H678.816V379.122C678.816 388.492 678.368 395.357 677.472 399.716C676.616 404.076 674.783 407.478 671.972 409.922C669.16 412.326 665.596 413.528 661.277 413.528C658.669 413.528 655.532 413.039 651.866 412.061L653.882 401.55C655.838 402.365 657.508 402.772 658.894 402.772C661.583 402.772 663.599 401.774 664.944 399.778C666.288 397.74 666.96 392.974 666.96 385.477V322.409ZM748.531 322.409H760.509L789.72 377.288L815.265 322.409H827.06L793.448 392.077C789.252 400.796 785.809 406.5 783.12 409.189C780.431 411.878 776.581 413.222 771.57 413.222C768.514 413.222 764.766 412.509 760.325 411.083V400.939C763.503 402.772 766.864 403.689 770.409 403.689C773.302 403.689 775.787 402.772 777.865 400.939C779.983 399.065 782.305 394.827 784.831 388.227L748.531 322.409ZM852.713 322.409H910.83V332.982H864.568V360.605H885.958C893.861 360.605 900.136 361.358 904.78 362.866C909.466 364.373 913.214 367.225 916.025 371.421C918.836 375.577 920.242 380.425 920.242 385.966C920.242 390.488 919.223 394.726 917.186 398.678C915.19 402.589 912.195 405.787 908.203 408.272C904.21 410.757 897.406 412 887.791 412H852.713V322.409ZM864.568 401.916H888.28C894.676 401.916 899.463 400.613 902.641 398.005C905.86 395.398 907.469 391.487 907.469 386.272C907.469 382.564 906.552 379.468 904.719 376.983C902.886 374.497 900.339 372.847 897.08 372.033C893.821 371.218 888.26 370.81 880.396 370.81H864.568V401.916ZM999.353 322.409H1057.29V332.982H1011.21V412H999.353V322.409ZM1071.33 368.366C1071.33 353.495 1075.32 341.863 1083.31 333.471C1091.29 325.037 1101.6 320.82 1114.23 320.82C1122.5 320.82 1129.96 322.796 1136.6 326.748C1143.24 330.7 1148.29 336.221 1151.75 343.31C1155.26 350.358 1157.01 358.364 1157.01 367.327C1157.01 376.412 1155.17 384.54 1151.51 391.711C1147.84 398.881 1142.65 404.32 1135.92 408.028C1129.2 411.694 1121.95 413.528 1114.17 413.528C1105.73 413.528 1098.2 411.491 1091.56 407.417C1084.92 403.342 1079.88 397.781 1076.46 390.733C1073.04 383.685 1071.33 376.229 1071.33 368.366ZM1083.55 368.549C1083.55 379.346 1086.44 387.861 1092.23 394.094C1098.05 400.287 1105.35 403.383 1114.11 403.383C1123.03 403.383 1130.36 400.246 1136.11 393.972C1141.89 387.698 1144.79 378.796 1144.79 367.266C1144.79 359.973 1143.54 353.617 1141.06 348.199C1138.61 342.739 1135.01 338.523 1130.24 335.548C1125.51 332.534 1120.2 331.026 1114.29 331.026C1105.9 331.026 1098.67 333.919 1092.6 339.704C1086.57 345.449 1083.55 355.064 1083.55 368.549ZM1192.68 322.409H1247.19V401.428H1255.26V432.9H1244.69V412H1185.47V432.9H1174.9V401.428H1181.87C1189.08 390.55 1192.68 368.57 1192.68 335.487V322.409ZM1235.34 332.982H1204.11V337.565C1204.11 345.184 1203.42 355.614 1202.03 368.855C1200.69 382.055 1198.02 392.913 1194.03 401.428H1235.34V332.982ZM1274.56 412L1308.96 322.409H1321.74L1358.4 412H1344.9L1334.45 384.866H1296.99L1287.15 412H1274.56ZM1300.41 375.21H1330.78L1321.43 350.399C1318.58 342.862 1316.46 336.669 1315.08 331.821C1313.94 337.565 1312.33 343.269 1310.25 348.932L1300.41 375.21Z" fill="white"/>
</svg>
