<svg width="1920" height="360" viewBox="0 0 1920 360" fill="none" xmlns="http://www.w3.org/2000/svg">
<g clip-path="url(#clip0_117_1940)">
<path d="M360 206.102C428.912 190.084 639.961 173.758 932.859 236.597C1225.76 299.434 1472.99 216.575 1560 167.291" stroke="#FFBA08" stroke-width="3.70739"/>
<path d="M360 206.102C470.107 213.801 772.32 190.393 841.617 261.547C936.243 358.708 1335.94 191.707 1380.98 206.102C1426.03 220.495 1495.32 253.23 1560 167.291" stroke="#D00000" stroke-width="3.70739"/>
<path d="M360 206.102C462.542 212.23 741.533 190.354 813.699 254.57C908.662 342.193 1280.99 193.054 1336.17 209.151C1406 228.389 1493.08 249.565 1560 167.291" stroke="#D51301" stroke-width="3.70739"/>
<path d="M360 206.102C454.977 210.66 710.744 190.315 785.779 247.593C881.08 325.676 1226.03 194.401 1291.36 212.201C1385.97 236.282 1490.86 245.898 1560 167.291" stroke="#D92502" stroke-width="3.70739"/>
<path d="M360 206.102C447.412 209.089 679.958 190.277 757.862 240.616C853.497 309.161 1171.08 195.748 1246.54 215.25C1365.94 244.176 1488.62 242.233 1560 167.291" stroke="#DE3802" stroke-width="3.70739"/>
<path d="M360 206.102C439.847 207.518 649.171 190.238 729.944 233.639C825.917 292.644 1116.13 197.096 1201.73 218.3C1345.92 252.071 1486.38 238.568 1560 167.291" stroke="#E34A03" stroke-width="3.70739"/>
<path d="M360 206.102C432.282 205.947 618.382 190.2 702.026 226.663C798.334 276.129 1061.17 198.441 1156.92 221.349C1325.89 259.965 1484.17 234.902 1560 167.291" stroke="#E85D04" stroke-width="3.70739"/>
<path d="M360 206.102C424.717 204.376 587.596 190.161 674.107 219.686C770.751 259.613 1006.22 199.789 1112.11 224.399C1305.86 267.858 1481.92 231.237 1560 167.291" stroke="#EC7005" stroke-width="3.70739"/>
<path d="M360 206.102C417.152 202.805 556.809 190.123 646.189 212.709C743.168 243.096 951.269 201.136 1067.3 227.448C1285.84 275.752 1479.68 227.572 1560 167.291" stroke="#F18206" stroke-width="3.70739"/>
<path d="M360 206.102C409.587 201.234 526.02 190.084 618.271 205.732C715.588 226.581 896.316 202.483 1022.48 230.498C1265.81 283.645 1477.47 223.905 1560 167.291" stroke="#F69506" stroke-width="3.70739"/>
<path d="M360 206.102C402.022 199.663 495.234 190.045 590.354 198.756C688.005 210.064 841.363 203.831 977.671 233.547C1245.78 291.538 1475.23 220.24 1560 167.291" stroke="#FAA707" stroke-width="3.70739"/>
<path d="M537.953 124.808L543.263 126.149C542.149 130.51 540.142 133.84 537.241 136.139C534.358 138.42 530.828 139.56 526.649 139.56C522.325 139.56 518.803 138.685 516.085 136.933C513.384 135.163 511.322 132.609 509.899 129.27C508.494 125.93 507.792 122.345 507.792 118.513C507.792 114.335 508.585 110.695 510.173 107.593C511.779 104.473 514.05 102.11 516.988 100.504C519.944 98.8803 523.192 98.0684 526.731 98.0684C530.746 98.0684 534.121 99.0901 536.858 101.134C539.595 103.177 541.502 106.051 542.578 109.755L537.351 110.987C536.42 108.067 535.07 105.942 533.3 104.61C531.53 103.278 529.304 102.612 526.622 102.612C523.538 102.612 520.956 103.351 518.876 104.829C516.814 106.307 515.364 108.295 514.525 110.795C513.685 113.277 513.266 115.84 513.266 118.486C513.266 121.898 513.758 124.881 514.744 127.436C515.747 129.972 517.298 131.87 519.396 133.129C521.495 134.388 523.766 135.017 526.211 135.017C529.185 135.017 531.703 134.16 533.765 132.444C535.827 130.729 537.223 128.184 537.953 124.808ZM564.905 138.876V103.488H551.686V98.7526H583.489V103.488H570.215V138.876H564.905ZM591.639 98.7526H597.003L610.086 123.33L621.526 98.7526H626.808L611.755 129.954C609.876 133.858 608.334 136.413 607.13 137.617C605.925 138.821 604.201 139.424 601.957 139.424C600.588 139.424 598.91 139.104 596.921 138.466V133.922C598.344 134.743 599.849 135.154 601.437 135.154C602.732 135.154 603.845 134.743 604.776 133.922C605.725 133.083 606.765 131.185 607.896 128.23L591.639 98.7526ZM639.173 98.7526H663.586V134.141H667.199V148.237H662.464V138.876H635.943V148.237H631.208V134.141H634.328C637.558 129.27 639.173 119.426 639.173 104.61V98.7526ZM658.277 103.488H644.291V105.54C644.291 108.952 643.981 113.623 643.36 119.553C642.758 125.465 641.563 130.328 639.775 134.141H658.277V103.488ZM680.357 138.876V98.7526H709.369V103.488H685.667V115.776H707.864V120.484H685.667V134.141H710.299V138.876H680.357ZM724.525 138.876V98.7526H729.835V115.229H750.69V98.7526H756V138.876H750.69V119.964H729.835V138.876H724.525ZM800.222 138.876H794.913V122.701C790.15 124.471 785.981 125.356 782.405 125.356C779.613 125.356 777.15 124.708 775.015 123.412C772.88 122.099 771.448 120.438 770.718 118.431C770.006 116.424 769.651 113.797 769.651 110.549V98.7526H774.96V110.056C774.96 114.435 775.754 117.318 777.341 118.705C778.947 120.073 780.872 120.758 783.116 120.758C786.857 120.758 790.789 119.927 794.913 118.267V98.7526H800.222V138.876ZM815.816 138.876V98.7526H844.828V103.488H821.126V115.776H843.323V120.484H821.126V134.141H845.759V138.876H815.816ZM888.448 124.808L893.758 126.149C892.645 130.51 890.638 133.84 887.737 136.139C884.854 138.42 881.323 139.56 877.145 139.56C872.82 139.56 869.299 138.685 866.58 136.933C863.88 135.163 861.818 132.609 860.395 129.27C858.99 125.93 858.287 122.345 858.287 118.513C858.287 114.335 859.081 110.695 860.668 107.593C862.274 104.473 864.546 102.11 867.483 100.504C870.439 98.8803 873.687 98.0684 877.227 98.0684C881.241 98.0684 884.617 99.0901 887.354 101.134C890.091 103.177 891.997 106.051 893.074 109.755L887.846 110.987C886.916 108.067 885.565 105.942 883.796 104.61C882.026 103.278 879.8 102.612 877.117 102.612C874.034 102.612 871.452 103.351 869.372 104.829C867.31 106.307 865.859 108.295 865.02 110.795C864.181 113.277 863.761 115.84 863.761 118.486C863.761 121.898 864.254 124.881 865.239 127.436C866.243 129.972 867.794 131.87 869.892 133.129C871.99 134.388 874.262 135.017 876.707 135.017C879.681 135.017 882.199 134.16 884.261 132.444C886.323 130.729 887.718 128.184 888.448 124.808ZM907.135 98.7526H912.445V116.324C914.872 116.324 916.578 115.859 917.563 114.928C918.548 113.979 919.807 111.717 921.34 108.14C922.453 105.513 923.365 103.661 924.077 102.584C924.807 101.49 925.838 100.577 927.17 99.8474C928.502 99.0993 929.97 98.7252 931.576 98.7252C933.62 98.7252 934.696 98.7435 934.806 98.78V103.378C934.623 103.378 934.267 103.369 933.738 103.351C933.154 103.332 932.799 103.323 932.671 103.323C930.974 103.323 929.715 103.734 928.894 104.555C928.055 105.376 927.097 107.128 926.02 109.81C924.67 113.204 923.529 115.348 922.599 116.242C921.668 117.117 920.555 117.82 919.26 118.349C921.851 119.061 924.405 121.451 926.923 125.52L935.189 138.876H928.593L921.887 127.983C920.044 124.973 918.503 122.911 917.262 121.798C916.021 120.666 914.415 120.101 912.445 120.101V138.876H907.135V98.7526ZM946.541 98.7526H951.358V130.529L972.706 98.7526H978.043V138.876H973.226V107.182L951.85 138.876H946.541V98.7526ZM993.555 98.7526H998.372V130.529L1019.72 98.7526H1025.06V138.876H1020.24V107.182L998.864 138.876H993.555V98.7526ZM1013.51 89.2006H1016.87C1016.6 91.4814 1015.76 93.2331 1014.36 94.4556C1012.97 95.6781 1011.12 96.2893 1008.8 96.2893C1006.46 96.2893 1004.59 95.6872 1003.19 94.483C1001.8 93.2605 1000.97 91.4997 1000.7 89.2006H1004.06C1004.32 90.4414 1004.82 91.372 1005.57 91.9923C1006.34 92.5945 1007.36 92.8955 1008.64 92.8955C1010.11 92.8955 1011.23 92.6036 1011.97 92.0197C1012.74 91.4176 1013.25 90.4779 1013.51 89.2006ZM1062.9 98.7526H1068.21V116.324C1070.63 116.324 1072.34 115.859 1073.32 114.928C1074.31 113.979 1075.57 111.717 1077.1 108.14C1078.21 105.513 1079.13 103.661 1079.84 102.584C1080.57 101.49 1081.6 100.577 1082.93 99.8474C1084.26 99.0993 1085.73 98.7252 1087.34 98.7252C1089.38 98.7252 1090.46 98.7435 1090.57 98.78V103.378C1090.38 103.378 1090.03 103.369 1089.5 103.351C1088.92 103.332 1088.56 103.323 1088.43 103.323C1086.73 103.323 1085.48 103.734 1084.65 104.555C1083.82 105.376 1082.86 107.128 1081.78 109.81C1080.43 113.204 1079.29 115.348 1078.36 116.242C1077.43 117.117 1076.32 117.82 1075.02 118.349C1077.61 119.061 1080.17 121.451 1082.68 125.52L1090.95 138.876H1084.35L1077.65 127.983C1075.81 124.973 1074.26 122.911 1073.02 121.798C1071.78 120.666 1070.18 120.101 1068.21 120.101V138.876H1062.9V98.7526ZM1105.15 98.7526H1130.27V138.876H1124.96V103.488H1110.46V124.151C1110.46 128.348 1110.26 131.423 1109.86 133.375C1109.47 135.327 1108.65 136.851 1107.39 137.946C1106.13 139.022 1104.54 139.56 1102.6 139.56C1101.43 139.56 1100.03 139.342 1098.39 138.904L1099.29 134.196C1100.17 134.561 1100.91 134.743 1101.53 134.743C1102.74 134.743 1103.64 134.296 1104.24 133.402C1104.85 132.49 1105.15 130.355 1105.15 126.998V98.7526ZM1141.68 98.7526H1147.04L1160.13 123.33L1171.57 98.7526H1176.85L1161.8 129.954C1159.92 133.858 1158.37 136.413 1157.17 137.617C1155.97 138.821 1154.24 139.424 1152 139.424C1150.63 139.424 1148.95 139.104 1146.96 138.466V133.922C1148.38 134.743 1149.89 135.154 1151.48 135.154C1152.77 135.154 1153.89 134.743 1154.82 133.922C1155.77 133.083 1156.81 131.185 1157.94 128.23L1141.68 98.7526ZM1188.34 98.7526H1214.37V103.488H1193.65V115.859H1203.23C1206.77 115.859 1209.58 116.196 1211.66 116.871C1213.75 117.546 1215.43 118.824 1216.69 120.703C1217.95 122.564 1218.58 124.735 1218.58 127.217C1218.58 129.242 1218.12 131.14 1217.21 132.91C1216.32 134.661 1214.98 136.094 1213.19 137.207C1211.4 138.32 1208.35 138.876 1204.05 138.876H1188.34V98.7526ZM1193.65 134.36H1204.27C1207.13 134.36 1209.28 133.776 1210.7 132.609C1212.14 131.441 1212.86 129.689 1212.86 127.354C1212.86 125.693 1212.45 124.307 1211.63 123.194C1210.81 122.08 1209.67 121.342 1208.21 120.977C1206.75 120.612 1204.26 120.429 1200.74 120.429H1193.65V134.36ZM1254.01 98.7526H1279.96V103.488H1259.32V138.876H1254.01V98.7526ZM1286.25 119.334C1286.25 112.675 1288.03 107.465 1291.61 103.706C1295.19 99.9295 1299.8 98.041 1305.46 98.041C1309.16 98.041 1312.5 98.9259 1315.48 100.696C1318.45 102.466 1320.71 104.938 1322.26 108.113C1323.83 111.27 1324.62 114.855 1324.62 118.869C1324.62 122.938 1323.8 126.578 1322.15 129.79C1320.51 133.001 1318.19 135.437 1315.18 137.097C1312.16 138.739 1308.92 139.56 1305.43 139.56C1301.65 139.56 1298.28 138.648 1295.31 136.824C1292.33 134.999 1290.08 132.508 1288.54 129.352C1287.01 126.195 1286.25 122.856 1286.25 119.334ZM1291.72 119.417C1291.72 124.252 1293.02 128.065 1295.61 130.857C1298.22 133.63 1301.48 135.017 1305.4 135.017C1309.4 135.017 1312.68 133.612 1315.26 130.802C1317.85 127.992 1319.14 124.005 1319.14 118.842C1319.14 115.576 1318.59 112.729 1317.47 110.303C1316.38 107.857 1314.76 105.969 1312.63 104.637C1310.51 103.287 1308.13 102.612 1305.49 102.612C1301.73 102.612 1298.49 103.907 1295.77 106.498C1293.07 109.071 1291.72 113.377 1291.72 119.417ZM1340.6 98.7526H1365.01V134.141H1368.62V148.237H1363.89V138.876H1337.37V148.237H1332.63V134.141H1335.75C1338.98 129.27 1340.6 119.426 1340.6 104.61V98.7526ZM1359.7 103.488H1345.71V105.54C1345.71 108.952 1345.4 113.623 1344.78 119.553C1344.18 125.465 1342.99 130.328 1341.2 134.141H1359.7V103.488ZM1377.26 138.876L1392.67 98.7526H1398.39L1414.81 138.876H1408.77L1404.09 126.724H1387.31L1382.9 138.876H1377.26ZM1388.84 122.4H1402.44L1398.26 111.288C1396.98 107.912 1396.03 105.139 1395.41 102.967C1394.9 105.54 1394.18 108.095 1393.25 110.631L1388.84 122.4Z" fill="white"/>
</g>
<defs>
<clipPath id="clip0_117_1940">
<rect width="1920" height="360" fill="white"/>
</clipPath>
</defs>
</svg>
