<svg width="1920" height="570" viewBox="0 0 1920 570" fill="none" xmlns="http://www.w3.org/2000/svg">
<g clip-path="url(#clip0_115_1688)">
<path d="M-467 141.844C-467 141.844 -95.0361 80.0406 146.311 272.031C387.658 464.022 560.336 525.968 825.288 371.889C1090.24 217.81 1370.64 581.333 1749.76 496.926C2128.88 412.519 2443.62 163.589 2443.62 163.589" stroke="#FFBA08" stroke-width="4.29189" stroke-miterlimit="10"/>
<path d="M-463.281 138.553C-463.281 138.553 -89.1715 97.7805 158.185 276.466C405.54 455.152 545.456 525.825 811.124 375.895C1076.79 225.965 1329.01 560.875 1726.3 491.776C2123.58 422.677 2449.77 126.393 2449.77 126.393" stroke="#FBA907" stroke-width="4.29189" stroke-miterlimit="10"/>
<path d="M-459.559 135.406C-459.559 135.406 -83.3028 115.52 169.919 281.044C423.14 446.568 530.294 525.682 796.964 380.044C1063.63 234.406 1287.38 540.704 1702.98 486.769C2118.58 432.834 2456.07 89.1967 2456.07 89.1967" stroke="#F69807" stroke-width="4.29189" stroke-miterlimit="10"/>
<path d="M-455.842 132.116C-455.842 132.116 -77.297 133.26 181.647 285.479C440.591 437.698 515.127 525.396 782.655 383.906C1050.18 242.417 1245.75 520.246 1679.37 481.475C2113 442.705 2461.93 51.8572 2461.93 51.8572" stroke="#F28706" stroke-width="4.29189" stroke-miterlimit="10"/>
<path d="M-452.121 128.825C-452.121 128.825 -71.4303 151 193.522 289.914C458.475 428.828 500.106 525.253 768.493 387.912C1036.88 250.572 1204.12 499.931 1656.06 476.325C2107.99 452.72 2468.22 14.6608 2468.22 14.6608" stroke="#EE7605" stroke-width="4.29189" stroke-miterlimit="10"/>
<path d="M-448.402 125.535C-448.402 125.535 -65.5657 168.597 205.253 294.349C476.071 420.101 484.941 524.967 754.328 391.775C1023.72 258.583 1162.63 479.33 1632.59 471.175C2102.55 463.02 2474.38 -22.6786 2474.38 -22.6786" stroke="#EA6504" stroke-width="4.29189" stroke-miterlimit="10"/>
<path d="M-444.826 122.244C-444.826 122.244 -59.7005 186.336 216.84 298.784C493.381 411.231 469.633 524.824 739.879 395.781C1010.12 266.738 1120.71 459.014 1608.99 466.025C2097.26 473.035 2480.38 -59.8751 2480.38 -59.8751" stroke="#E55504" stroke-width="4.29189" stroke-miterlimit="10"/>
<path d="M-441.105 118.954C-441.105 118.954 -53.8339 204.076 228.573 303.362C510.979 402.648 454.469 524.681 725.717 399.786C996.964 274.892 1079.23 438.7 1585.53 460.874C2091.83 483.049 2486.39 -97.0714 2486.39 -97.0714" stroke="#E14403" stroke-width="4.29189" stroke-miterlimit="10"/>
<path d="M-437.385 115.663C-437.385 115.663 -47.9672 221.673 240.448 307.797C528.863 393.921 439.448 524.394 711.554 403.792C983.66 283.19 1037.6 418.385 1562.21 455.867C2086.82 493.35 2492.69 -134.125 2492.69 -134.125" stroke="#DD3302" stroke-width="4.29189" stroke-miterlimit="10"/>
<path d="M-433.668 112.373C-433.668 112.373 -42.1044 239.413 252.176 312.232C546.457 385.051 424.281 524.251 697.245 407.655C970.209 291.059 995.961 397.927 1538.6 450.574C2081.24 503.221 2498.84 -171.607 2498.84 -171.607" stroke="#D92201" stroke-width="4.29189" stroke-miterlimit="10"/>
<path d="M-429.945 109.082C-429.945 109.082 -36.0928 257.153 263.91 316.667C563.913 376.181 409.119 523.965 683.085 411.661C957.051 299.356 954.332 377.469 1515.28 445.424C2076.23 513.379 2504.99 -208.804 2504.99 -208.804" stroke="#D41101" stroke-width="4.29189" stroke-miterlimit="10"/>
<path d="M-426.227 105.792C-426.227 105.792 -30.2281 274.749 275.641 321.102C581.509 367.454 394.097 523.822 668.778 415.523C943.459 307.225 912.7 357.154 1491.82 440.273C2070.94 523.393 2511 -246 2511 -246" stroke="#D00000" stroke-width="4.29189" stroke-miterlimit="10"/>
<path d="M444.131 250.034V150.53H457.299V191.391H509.019V150.53H522.186V250.034H509.019V203.133H457.299V250.034H444.131ZM556.854 201.572C556.854 185.056 561.288 172.137 570.157 162.816C579.026 153.449 590.474 148.766 604.501 148.766C613.687 148.766 621.967 150.96 629.343 155.35C636.719 159.739 642.33 165.87 646.176 173.743C650.067 181.571 652.013 190.463 652.013 200.418C652.013 210.508 649.977 219.536 645.904 227.5C641.832 235.463 636.063 241.504 628.596 245.622C621.13 249.694 613.076 251.731 604.433 251.731C595.067 251.731 586.696 249.468 579.32 244.943C571.944 240.418 566.356 234.242 562.555 226.414C558.754 218.585 556.854 210.305 556.854 201.572ZM570.428 201.775C570.428 213.766 573.641 223.223 580.067 230.147C586.537 237.025 594.637 240.463 604.365 240.463C614.275 240.463 622.42 236.979 628.8 230.011C635.225 223.042 638.438 213.156 638.438 200.35C638.438 192.25 637.058 185.191 634.298 179.173C631.583 173.11 627.578 168.427 622.284 165.123C617.035 161.775 611.13 160.101 604.569 160.101C595.248 160.101 587.216 163.313 580.474 169.739C573.777 176.119 570.428 186.798 570.428 201.775ZM685.323 250.034V150.53H705.142L728.694 220.984C730.866 227.545 732.45 232.454 733.445 235.712C734.577 232.092 736.341 226.776 738.74 219.762L762.563 150.53H780.278V250.034H767.586V166.752L738.672 250.034H726.794L698.015 165.327V250.034H685.323ZM818.407 150.53H830.353V229.332L883.295 150.53H896.53V250.034H884.584V171.436L831.575 250.034H818.407V150.53ZM935.202 250.034V150.53H948.37V191.391H1000.09V150.53H1013.26V250.034H1000.09V203.133H948.37V250.034H935.202ZM1041 250.034L1079.21 150.53H1093.4L1134.12 250.034H1119.12L1107.52 219.898H1065.91L1054.98 250.034H1041ZM1069.71 209.174H1103.45L1093.06 181.617C1089.89 173.246 1087.54 166.368 1086 160.983C1084.73 167.363 1082.95 173.698 1080.64 179.988L1069.71 209.174ZM1161.39 150.53H1174.56V238.291H1226.42V150.53H1239.65V238.291H1248.75V277.658H1237.07V250.034H1161.39V150.53ZM1281.11 150.53H1293.05V229.332L1345.99 150.53H1359.23V250.034H1347.28V171.436L1294.27 250.034H1281.11V150.53ZM1397.7 150.53H1409.64V229.332L1462.59 150.53H1475.82V250.034H1463.88V171.436L1410.87 250.034H1397.7V150.53Z" fill="white"/>
</g>
<defs>
<clipPath id="clip0_115_1688">
<rect width="1920" height="570" fill="white"/>
</clipPath>
</defs>
</svg>
