<svg width="1920" height="455" viewBox="0 0 1920 455" fill="none" xmlns="http://www.w3.org/2000/svg">
<g clip-path="url(#clip0_117_1828)">
<path d="M714.307 180V132.557H720.586V152.039H745.246V132.557H751.524V180H745.246V157.638H720.586V180H714.307ZM768.053 156.893C768.053 149.019 770.167 142.859 774.396 138.415C778.625 133.949 784.083 131.716 790.771 131.716C795.151 131.716 799.099 132.762 802.616 134.855C806.133 136.948 808.808 139.871 810.642 143.625C812.497 147.357 813.425 151.597 813.425 156.343C813.425 161.154 812.454 165.459 810.512 169.256C808.571 173.053 805.82 175.933 802.26 177.896C798.7 179.838 794.86 180.809 790.739 180.809C786.273 180.809 782.282 179.73 778.765 177.573C775.248 175.415 772.584 172.47 770.772 168.738C768.959 165.006 768.053 161.057 768.053 156.893ZM774.526 156.991C774.526 162.708 776.057 167.217 779.121 170.518C782.206 173.797 786.068 175.437 790.707 175.437C795.431 175.437 799.315 173.776 802.357 170.453C805.421 167.131 806.952 162.417 806.952 156.311C806.952 152.449 806.294 149.083 804.978 146.214C803.684 143.323 801.774 141.09 799.25 139.515C796.748 137.918 793.932 137.12 790.804 137.12C786.359 137.12 782.53 138.652 779.315 141.716C776.122 144.758 774.526 149.849 774.526 156.991ZM829.307 180V132.557H838.757L849.986 166.149C851.022 169.277 851.777 171.618 852.252 173.172C852.791 171.446 853.632 168.911 854.776 165.566L866.135 132.557H874.582V180H868.53V140.292L854.744 180H849.08L835.359 139.612V180H829.307ZM892.761 132.557H898.457V170.13L923.699 132.557H930.01V180H924.314V142.525L899.04 180H892.761V132.557ZM948.449 180V132.557H954.727V152.039H979.387V132.557H985.665V180H979.387V157.638H954.727V180H948.449ZM998.894 180L1017.11 132.557H1023.88L1043.29 180H1036.14L1030.61 165.631H1010.77L1005.56 180H998.894ZM1012.58 160.518H1028.67L1023.72 147.379C1022.21 143.388 1021.08 140.108 1020.35 137.541C1019.75 140.583 1018.89 143.603 1017.79 146.602L1012.58 160.518ZM1056.3 132.557H1062.57V174.401H1087.3V132.557H1093.61V174.401H1097.95V193.171H1092.38V180H1056.3V132.557ZM1113.38 132.557H1119.07V170.13L1144.31 132.557H1150.62V180H1144.93V142.525L1119.65 180H1113.38V132.557ZM1168.97 132.557H1174.66V170.13L1199.9 132.557H1206.21V180H1200.52V142.525L1175.24 180H1168.97V132.557Z" fill="white"/>
<path d="M-51 126.1C-51 126.1 209 82.9 377.7 217.1C546.4 351.3 667.1 394.6 852.3 286.9C1037.5 179.2 1233.5 433.3 1498.5 374.3C1763.5 315.3 1983.5 141.3 1983.5 141.3" stroke="#FFBA08" stroke-width="3" stroke-miterlimit="10"/>
<path d="M-48.4004 123.8C-48.4004 123.8 213.1 95.3 386 220.2C558.9 345.1 656.7 394.5 842.4 289.7C1028.1 184.9 1204.4 419 1482.1 370.7C1759.8 322.4 1987.8 115.3 1987.8 115.3" stroke="#FBA907" stroke-width="3" stroke-miterlimit="10"/>
<path d="M-45.7988 121.6C-45.7988 121.6 217.201 107.7 394.201 223.4C571.201 339.1 646.101 394.4 832.501 292.6C1018.9 190.8 1175.3 404.9 1465.8 367.2C1756.3 329.5 1992.2 89.3 1992.2 89.3" stroke="#F69807" stroke-width="3" stroke-miterlimit="10"/>
<path d="M-43.2012 119.3C-43.2012 119.3 221.399 120.1 402.399 226.5C583.399 332.9 635.499 394.2 822.499 295.3C1009.5 196.4 1146.2 390.6 1449.3 363.5C1752.4 336.4 1996.3 63.2 1996.3 63.2" stroke="#F28706" stroke-width="3" stroke-miterlimit="10"/>
<path d="M-40.5996 117C-40.5996 117 225.5 132.5 410.7 229.6C595.9 326.7 625 394.1 812.6 298.1C1000.2 202.1 1117.1 376.4 1433 359.9C1748.9 343.4 2000.7 37.2 2000.7 37.2" stroke="#EE7605" stroke-width="3" stroke-miterlimit="10"/>
<path d="M-38 114.7C-38 114.7 229.6 144.8 418.9 232.7C608.2 320.6 614.4 393.9 802.7 300.8C991 207.7 1088.1 362 1416.6 356.3C1745.1 350.6 2005 11.1 2005 11.1" stroke="#EA6504" stroke-width="3" stroke-miterlimit="10"/>
<path d="M-35.5 112.4C-35.5 112.4 233.7 157.2 427 235.8C620.3 314.4 603.7 393.8 792.6 303.6C981.5 213.4 1058.8 347.8 1400.1 352.7C1741.4 357.6 2009.2 -14.9 2009.2 -14.9" stroke="#E55504" stroke-width="3" stroke-miterlimit="10"/>
<path d="M-32.9004 110.1C-32.9004 110.1 237.8 169.6 435.2 239C632.6 308.4 593.1 393.7 782.7 306.4C972.3 219.1 1029.8 333.6 1383.7 349.1C1737.6 364.6 2013.4 -40.9 2013.4 -40.9" stroke="#E14403" stroke-width="3" stroke-miterlimit="10"/>
<path d="M-30.2988 107.8C-30.2988 107.8 241.901 181.9 443.501 242.1C645.101 302.3 582.601 393.5 772.801 309.2C963.001 224.9 1000.7 319.4 1367.4 345.6C1734.1 371.8 2017.8 -66.8 2017.8 -66.8" stroke="#DD3302" stroke-width="3" stroke-miterlimit="10"/>
<path d="M-27.7012 105.5C-27.7012 105.5 245.999 194.3 451.699 245.2C657.399 296.1 571.999 393.4 762.799 311.9C953.599 230.4 971.599 305.1 1350.9 341.9C1730.2 378.7 2022.1 -93 2022.1 -93" stroke="#D92201" stroke-width="3" stroke-miterlimit="10"/>
<path d="M-25.0996 103.2C-25.0996 103.2 250.2 206.7 459.9 248.3C669.6 289.9 561.4 393.2 752.9 314.7C944.4 236.2 942.5 290.8 1334.6 338.3C1726.7 385.8 2026.4 -119 2026.4 -119" stroke="#D41101" stroke-width="3" stroke-miterlimit="10"/>
<path d="M-22.5 100.9C-22.5 100.9 254.3 219 468.1 251.4C681.9 283.8 550.9 393.1 742.9 317.4C934.9 241.7 913.4 276.6 1318.2 334.7C1723 392.8 2030.6 -145 2030.6 -145" stroke="#D00000" stroke-width="3" stroke-miterlimit="10"/>
</g>
<defs>
<clipPath id="clip0_117_1828">
<rect width="1920" height="455" fill="white"/>
</clipPath>
</defs>
</svg>
