<svg width="1920" height="744" viewBox="0 0 1920 744" fill="none" xmlns="http://www.w3.org/2000/svg">
<g clip-path="url(#clip0_115_1688)">
<path d="M139.713 370.07V211.733H160.666V276.753H242.967V211.733H263.92V370.07H242.967V295.438H160.666V370.07H139.713ZM319.085 292.954C319.085 266.672 326.141 246.115 340.254 231.282C354.367 216.377 372.584 208.925 394.905 208.925C409.522 208.925 422.699 212.417 434.435 219.402C446.172 226.386 455.101 236.142 461.221 248.671C467.413 261.128 470.509 275.277 470.509 291.118C470.509 307.174 467.269 321.539 460.789 334.212C454.309 346.885 445.128 356.497 433.247 363.049C421.367 369.53 408.55 372.77 394.797 372.77C379.892 372.77 366.572 369.17 354.835 361.969C343.098 354.769 334.206 344.94 328.158 332.484C322.109 320.027 319.085 306.85 319.085 292.954ZM340.686 293.278C340.686 312.359 345.799 327.408 356.023 338.424C366.32 349.369 379.208 354.841 394.689 354.841C410.458 354.841 423.419 349.297 433.571 338.208C443.796 327.12 448.908 311.387 448.908 291.009C448.908 278.121 446.712 266.888 442.32 257.312C438 247.663 431.627 240.211 423.203 234.954C414.85 229.626 405.454 226.962 395.013 226.962C380.18 226.962 367.4 232.074 356.671 242.299C346.015 252.451 340.686 269.444 340.686 293.278ZM523.514 370.07V211.733H555.052L592.53 323.843C595.986 334.284 598.507 342.096 600.091 347.281C601.891 341.52 604.699 333.06 608.515 321.899L646.425 211.733H674.615V370.07H654.418V237.547L608.407 370.07H589.506L543.712 235.278V370.07H523.514ZM735.288 211.733H754.297V337.128L838.542 211.733H859.603V370.07H840.594V244.999L756.241 370.07H735.288V211.733ZM921.141 370.07V211.733H942.094V276.753H1024.39V211.733H1045.35V370.07H1024.39V295.438H942.094V370.07H921.141ZM1089.5 370.07L1150.3 211.733H1172.88L1237.68 370.07H1213.81L1195.34 322.115H1129.13L1111.75 370.07H1089.5ZM1135.18 305.05H1188.86L1172.34 261.2C1167.3 247.879 1163.55 236.934 1161.1 228.366C1159.09 238.519 1156.24 248.599 1152.57 258.608L1135.18 305.05ZM1281.07 211.733H1302.03V351.385H1384.54V211.733H1405.6V351.385H1420.08V414.028H1401.5V370.07H1281.07V211.733ZM1471.57 211.733H1490.58V337.128L1574.82 211.733H1595.88V370.07H1576.88V244.999L1492.52 370.07H1471.57V211.733ZM1657.1 211.733H1676.11V337.128L1760.35 211.733H1781.41V370.07H1762.4V244.999L1678.05 370.07H1657.1V211.733Z" fill="white"/>
<path d="M-467 302.844C-467 302.844 -95.0361 241.041 146.311 433.031C387.658 625.022 560.336 686.968 825.288 532.889C1090.24 378.81 1370.64 742.333 1749.76 657.926C2128.88 573.519 2443.62 324.589 2443.62 324.589" stroke="#FFBA08" stroke-width="4.29189" stroke-miterlimit="10"/>
<path d="M-463.281 299.553C-463.281 299.553 -89.1715 258.78 158.185 437.466C405.54 616.152 545.456 686.825 811.124 536.895C1076.79 386.965 1329.01 721.875 1726.3 652.776C2123.58 583.677 2449.77 287.393 2449.77 287.393" stroke="#FBA907" stroke-width="4.29189" stroke-miterlimit="10"/>
<path d="M-459.559 296.406C-459.559 296.406 -83.3028 276.52 169.919 442.044C423.14 607.568 530.294 686.682 796.964 541.044C1063.63 395.406 1287.38 701.704 1702.98 647.769C2118.58 593.834 2456.07 250.197 2456.07 250.197" stroke="#F69807" stroke-width="4.29189" stroke-miterlimit="10"/>
<path d="M-455.842 293.116C-455.842 293.116 -77.297 294.26 181.647 446.479C440.591 598.698 515.127 686.396 782.655 544.906C1050.18 403.417 1245.75 681.246 1679.37 642.475C2113 603.705 2461.93 212.857 2461.93 212.857" stroke="#F28706" stroke-width="4.29189" stroke-miterlimit="10"/>
<path d="M-452.121 289.825C-452.121 289.825 -71.4303 312 193.522 450.914C458.475 589.828 500.106 686.253 768.493 548.912C1036.88 411.572 1204.12 660.931 1656.06 637.325C2107.99 613.72 2468.22 175.661 2468.22 175.661" stroke="#EE7605" stroke-width="4.29189" stroke-miterlimit="10"/>
<path d="M-448.402 286.535C-448.402 286.535 -65.5657 329.597 205.253 455.349C476.071 581.101 484.941 685.967 754.328 552.775C1023.72 419.583 1162.63 640.33 1632.59 632.175C2102.55 624.02 2474.38 138.321 2474.38 138.321" stroke="#EA6504" stroke-width="4.29189" stroke-miterlimit="10"/>
<path d="M-444.826 283.244C-444.826 283.244 -59.7005 347.336 216.84 459.784C493.381 572.231 469.633 685.824 739.879 556.781C1010.12 427.738 1120.71 620.014 1608.99 627.025C2097.26 634.035 2480.38 101.125 2480.38 101.125" stroke="#E55504" stroke-width="4.29189" stroke-miterlimit="10"/>
<path d="M-441.105 279.954C-441.105 279.954 -53.8339 365.076 228.573 464.362C510.979 563.648 454.469 685.681 725.717 560.786C996.964 435.892 1079.23 599.7 1585.53 621.874C2091.83 644.049 2486.39 63.9286 2486.39 63.9286" stroke="#E14403" stroke-width="4.29189" stroke-miterlimit="10"/>
<path d="M-437.385 276.663C-437.385 276.663 -47.9672 382.673 240.448 468.797C528.863 554.921 439.448 685.394 711.554 564.792C983.66 444.19 1037.6 579.385 1562.21 616.867C2086.82 654.35 2492.69 26.8753 2492.69 26.8753" stroke="#DD3302" stroke-width="4.29189" stroke-miterlimit="10"/>
<path d="M-433.668 273.373C-433.668 273.373 -42.1044 400.413 252.176 473.232C546.457 546.051 424.281 685.251 697.245 568.655C970.209 452.059 995.961 558.927 1538.6 611.574C2081.24 664.221 2498.84 -10.6072 2498.84 -10.6072" stroke="#D92201" stroke-width="4.29189" stroke-miterlimit="10"/>
<path d="M-429.945 270.082C-429.945 270.082 -36.0928 418.153 263.91 477.667C563.913 537.181 409.119 684.965 683.085 572.661C957.051 460.356 954.332 538.469 1515.28 606.424C2076.23 674.379 2504.99 -47.8036 2504.99 -47.8036" stroke="#D41101" stroke-width="4.29189" stroke-miterlimit="10"/>
<path d="M-426.227 266.792C-426.227 266.792 -30.2281 435.749 275.641 482.102C581.509 528.454 394.097 684.822 668.778 576.523C943.459 468.225 912.7 518.154 1491.82 601.273C2070.94 684.393 2511 -85 2511 -85" stroke="#D00000" stroke-width="4.29189" stroke-miterlimit="10"/>
</g>
<defs>
<clipPath id="clip0_115_1688">
<rect width="1920" height="744" fill="white"/>
</clipPath>
</defs>
</svg>
