<svg width="1920" height="285" viewBox="0 0 1920 285" fill="none" xmlns="http://www.w3.org/2000/svg">
<g clip-path="url(#clip0_362_5)">
<path d="M-35 73.5364C-35 73.5364 225 43.1743 393.7 137.494C562.4 231.813 683.1 262.246 868.3 186.551C1053.5 110.857 1249.5 289.445 1514.5 247.978C1779.5 206.511 1999.5 84.2194 1999.5 84.2194" stroke="#FFBA08" stroke-width="3" stroke-miterlimit="10"/>
<path d="M-32.4004 71.9199C-32.4004 71.9199 229.1 51.8893 402 139.672C574.9 227.456 672.7 262.175 858.4 188.519C1044.1 114.863 1220.4 279.394 1498.1 245.448C1775.8 211.501 2003.8 65.9459 2003.8 65.9459" stroke="#FBA907" stroke-width="3" stroke-miterlimit="10"/>
<path d="M-29.7988 70.3737C-29.7988 70.3737 233.201 60.6044 410.201 141.921C587.201 223.239 662.101 262.105 848.501 190.557C1034.9 119.009 1191.3 269.485 1481.8 242.988C1772.3 216.491 2008.2 47.6724 2008.2 47.6724" stroke="#F69807" stroke-width="3" stroke-miterlimit="10"/>
<path d="M-27.2012 68.7572C-27.2012 68.7572 237.399 69.3195 418.399 144.1C599.399 218.881 651.499 261.964 838.499 192.455C1025.5 122.945 1162.2 259.434 1465.3 240.388C1768.4 221.341 2012.3 29.3286 2012.3 29.3286" stroke="#F28706" stroke-width="3" stroke-miterlimit="10"/>
<path d="M-24.5996 67.1407C-24.5996 67.1407 241.5 78.0345 426.7 146.279C611.9 214.524 641 261.894 828.6 194.423C1016.2 126.951 1133.1 249.454 1449 237.857C1764.9 226.261 2016.7 11.0551 2016.7 11.0551" stroke="#EE7605" stroke-width="3" stroke-miterlimit="10"/>
<path d="M-22 65.5242C-22 65.5242 245.6 86.6793 434.9 148.458C624.2 210.236 630.4 261.754 818.7 196.32C1007 130.887 1104.1 239.333 1432.6 235.327C1761.1 231.321 2021 -7.2887 2021 -7.2887" stroke="#EA6504" stroke-width="3" stroke-miterlimit="10"/>
<path d="M-19.5 63.9077C-19.5 63.9077 249.7 95.3943 443 150.637C636.3 205.879 619.7 261.683 808.6 198.288C997.5 134.893 1074.8 229.353 1416.1 232.797C1757.4 236.241 2025.2 -25.5622 2025.2 -25.5622" stroke="#E55504" stroke-width="3" stroke-miterlimit="10"/>
<path d="M-16.9004 62.2912C-16.9004 62.2912 253.8 104.109 451.2 152.886C648.6 201.662 609.1 261.613 798.7 200.256C988.3 138.899 1045.8 219.373 1399.7 230.267C1753.6 241.161 2029.4 -43.8357 2029.4 -43.8357" stroke="#E14403" stroke-width="3" stroke-miterlimit="10"/>
<path d="M-14.2988 60.6747C-14.2988 60.6747 257.901 112.754 459.501 155.064C661.101 197.375 598.601 261.472 788.801 202.224C979.001 142.976 1016.7 209.393 1383.4 227.807C1750.1 246.221 2033.8 -62.0389 2033.8 -62.0389" stroke="#DD3302" stroke-width="3" stroke-miterlimit="10"/>
<path d="M-11.7012 59.0582C-11.7012 59.0582 261.999 121.469 467.699 157.243C673.399 193.017 587.999 261.402 778.799 204.122C969.599 146.841 987.599 199.342 1366.9 225.207C1746.2 251.071 2038.1 -80.453 2038.1 -80.453" stroke="#D92201" stroke-width="3" stroke-miterlimit="10"/>
<path d="M-9.09961 57.4417C-9.09961 57.4417 266.2 130.184 475.9 159.422C685.6 188.66 577.4 261.262 768.9 206.09C960.4 150.918 958.5 189.292 1350.6 222.676C1742.7 256.061 2042.4 -98.7265 2042.4 -98.7265" stroke="#D41101" stroke-width="3" stroke-miterlimit="10"/>
<path d="M-6.5 55.8252C-6.5 55.8252 270.3 138.829 484.1 161.601C697.9 184.372 566.9 261.191 758.9 207.987C950.9 154.783 929.4 179.312 1334.2 220.146C1739 260.98 2046.6 -117 2046.6 -117" stroke="#D00000" stroke-width="3" stroke-miterlimit="10"/>
</g>
<defs>
<clipPath id="clip0_362_5">
<rect width="1920" height="285" fill="white"/>
</clipPath>
</defs>
</svg>
