<svg width="1920" height="455" viewBox="0 0 1920 455" fill="none" xmlns="http://www.w3.org/2000/svg">
<g clip-path="url(#clip0_117_1924)">
<path d="M-51 126.1C-51 126.1 209 82.9 377.7 217.1C546.4 351.3 667.1 394.6 852.3 286.9C1037.5 179.2 1233.5 433.3 1498.5 374.3C1763.5 315.3 1983.5 141.3 1983.5 141.3" stroke="#FFBA08" stroke-width="3" stroke-miterlimit="10"/>
<path d="M-48.4004 123.8C-48.4004 123.8 213.1 95.3 386 220.2C558.9 345.1 656.7 394.5 842.4 289.7C1028.1 184.9 1204.4 419 1482.1 370.7C1759.8 322.4 1987.8 115.3 1987.8 115.3" stroke="#FBA907" stroke-width="3" stroke-miterlimit="10"/>
<path d="M-45.7988 121.6C-45.7988 121.6 217.201 107.7 394.201 223.4C571.201 339.1 646.101 394.4 832.501 292.6C1018.9 190.8 1175.3 404.9 1465.8 367.2C1756.3 329.5 1992.2 89.3 1992.2 89.3" stroke="#F69807" stroke-width="3" stroke-miterlimit="10"/>
<path d="M-43.2012 119.3C-43.2012 119.3 221.399 120.1 402.399 226.5C583.399 332.9 635.499 394.2 822.499 295.3C1009.5 196.4 1146.2 390.6 1449.3 363.5C1752.4 336.4 1996.3 63.2 1996.3 63.2" stroke="#F28706" stroke-width="3" stroke-miterlimit="10"/>
<path d="M-40.5996 117C-40.5996 117 225.5 132.5 410.7 229.6C595.9 326.7 625 394.1 812.6 298.1C1000.2 202.1 1117.1 376.4 1433 359.9C1748.9 343.4 2000.7 37.2 2000.7 37.2" stroke="#EE7605" stroke-width="3" stroke-miterlimit="10"/>
<path d="M-38 114.7C-38 114.7 229.6 144.8 418.9 232.7C608.2 320.6 614.4 393.9 802.7 300.8C991 207.7 1088.1 362 1416.6 356.3C1745.1 350.6 2005 11.1 2005 11.1" stroke="#EA6504" stroke-width="3" stroke-miterlimit="10"/>
<path d="M-35.5 112.4C-35.5 112.4 233.7 157.2 427 235.8C620.3 314.4 603.7 393.8 792.6 303.6C981.5 213.4 1058.8 347.8 1400.1 352.7C1741.4 357.6 2009.2 -14.9 2009.2 -14.9" stroke="#E55504" stroke-width="3" stroke-miterlimit="10"/>
<path d="M-32.9004 110.1C-32.9004 110.1 237.8 169.6 435.2 239C632.6 308.4 593.1 393.7 782.7 306.4C972.3 219.1 1029.8 333.6 1383.7 349.1C1737.6 364.6 2013.4 -40.9 2013.4 -40.9" stroke="#E14403" stroke-width="3" stroke-miterlimit="10"/>
<path d="M-30.2988 107.8C-30.2988 107.8 241.901 181.9 443.501 242.1C645.101 302.3 582.601 393.5 772.801 309.2C963.001 224.9 1000.7 319.4 1367.4 345.6C1734.1 371.8 2017.8 -66.8 2017.8 -66.8" stroke="#DD3302" stroke-width="3" stroke-miterlimit="10"/>
<path d="M-27.7012 105.5C-27.7012 105.5 245.999 194.3 451.699 245.2C657.399 296.1 571.999 393.4 762.799 311.9C953.599 230.4 971.599 305.1 1350.9 341.9C1730.2 378.7 2022.1 -93 2022.1 -93" stroke="#D92201" stroke-width="3" stroke-miterlimit="10"/>
<path d="M-25.0996 103.2C-25.0996 103.2 250.2 206.7 459.9 248.3C669.6 289.9 561.4 393.2 752.9 314.7C944.4 236.2 942.5 290.8 1334.6 338.3C1726.7 385.8 2026.4 -119 2026.4 -119" stroke="#D41101" stroke-width="3" stroke-miterlimit="10"/>
<path d="M-22.5 100.9C-22.5 100.9 254.3 219 468.1 251.4C681.9 283.8 550.9 393.1 742.9 317.4C934.9 241.7 913.4 276.6 1318.2 334.7C1723 392.8 2030.6 -145 2030.6 -145" stroke="#D00000" stroke-width="3" stroke-miterlimit="10"/>
<path d="M786.178 132.557H823.491V180H817.181V138.156H792.456V180H786.178V132.557ZM841.704 180V132.557H859.6C862.75 132.557 865.155 132.708 866.817 133.01C869.147 133.399 871.099 134.143 872.674 135.243C874.249 136.322 875.511 137.843 876.461 139.806C877.431 141.77 877.917 143.927 877.917 146.279C877.917 150.313 876.633 153.733 874.066 156.537C871.498 159.321 866.86 160.712 860.15 160.712H847.982V180H841.704ZM847.982 155.114H860.247C864.303 155.114 867.183 154.358 868.888 152.848C870.592 151.338 871.444 149.213 871.444 146.473C871.444 144.488 870.937 142.794 869.923 141.392C868.931 139.968 867.615 139.03 865.975 138.576C864.918 138.296 862.966 138.156 860.118 138.156H847.982V155.114ZM884.187 180L902.407 132.557H909.171L928.588 180H921.436L915.902 165.631H896.064L890.854 180H884.187ZM897.876 160.518H913.96L909.009 147.379C907.499 143.388 906.377 140.108 905.643 137.541C905.039 140.583 904.187 143.603 903.087 146.602L897.876 160.518ZM941.299 180V132.557H959.098C962.722 132.557 965.624 133.043 967.803 134.013C970.004 134.963 971.719 136.441 972.949 138.447C974.2 140.432 974.826 142.514 974.826 144.693C974.826 146.721 974.276 148.63 973.175 150.421C972.075 152.212 970.414 153.657 968.192 154.758C971.061 155.599 973.262 157.034 974.794 159.062C976.347 161.09 977.124 163.485 977.124 166.246C977.124 168.468 976.649 170.539 975.7 172.46C974.772 174.358 973.618 175.825 972.237 176.861C970.856 177.896 969.119 178.684 967.027 179.223C964.955 179.741 962.41 180 959.389 180H941.299ZM947.577 152.492H957.836C960.619 152.492 962.615 152.309 963.823 151.942C965.419 151.467 966.617 150.68 967.415 149.58C968.235 148.479 968.645 147.098 968.645 145.437C968.645 143.862 968.267 142.482 967.512 141.295C966.757 140.087 965.678 139.267 964.276 138.835C962.873 138.382 960.468 138.156 957.059 138.156H947.577V152.492ZM947.577 174.401H959.389C961.417 174.401 962.841 174.326 963.661 174.175C965.106 173.916 966.315 173.484 967.285 172.88C968.256 172.276 969.055 171.402 969.68 170.259C970.306 169.094 970.619 167.756 970.619 166.246C970.619 164.477 970.166 162.945 969.26 161.651C968.353 160.335 967.091 159.418 965.473 158.9C963.877 158.361 961.568 158.091 958.548 158.091H947.577V174.401ZM993.815 132.557H999.51V170.13L1024.75 132.557H1031.06V180H1025.37V142.525L1000.09 180H993.815V132.557ZM1052.77 132.557H1082.48V180H1076.2V138.156H1059.05V162.589C1059.05 167.551 1058.81 171.187 1058.34 173.495C1057.88 175.804 1056.91 177.605 1055.42 178.9C1053.94 180.173 1052.05 180.809 1049.76 180.809C1048.38 180.809 1046.72 180.55 1044.78 180.032L1045.85 174.466C1046.88 174.898 1047.77 175.113 1048.5 175.113C1049.92 175.113 1050.99 174.585 1051.7 173.528C1052.41 172.449 1052.77 169.925 1052.77 165.955V132.557ZM1095.55 180L1113.77 132.557H1120.53L1139.95 180H1132.79L1127.26 165.631H1107.42L1102.21 180H1095.55ZM1109.23 160.518H1125.32L1120.37 147.379C1118.86 143.388 1117.74 140.108 1117 137.541C1116.4 140.583 1115.55 143.603 1114.45 146.602L1109.23 160.518Z" fill="white"/>
</g>
<defs>
<clipPath id="clip0_117_1924">
<rect width="1920" height="455" fill="white"/>
</clipPath>
</defs>
</svg>
