<svg width="1920" height="744" viewBox="0 0 1920 744" fill="none" xmlns="http://www.w3.org/2000/svg">
<g clip-path="url(#clip0_115_1747)">
<path d="M440.281 211.733H564.812V370.07H543.751V230.418H461.234V370.07H440.281V211.733ZM625.593 370.07V211.733H685.321C695.833 211.733 703.862 212.237 709.406 213.245C717.182 214.541 723.699 217.025 728.955 220.698C734.211 224.298 738.424 229.374 741.592 235.926C744.832 242.479 746.452 249.679 746.452 257.528C746.452 270.992 742.168 282.405 733.599 291.765C725.031 301.054 709.55 305.698 687.157 305.698H646.546V370.07H625.593ZM646.546 287.013H687.481C701.017 287.013 710.63 284.493 716.318 279.453C722.007 274.413 724.851 267.32 724.851 258.176C724.851 251.551 723.159 245.899 719.775 241.219C716.462 236.466 712.07 233.334 706.598 231.822C703.07 230.886 696.553 230.418 687.049 230.418H646.546V287.013ZM767.379 370.07L828.187 211.733H850.76L915.563 370.07H891.694L873.225 322.115H807.017L789.628 370.07H767.379ZM813.066 305.05H866.745L850.22 261.2C845.18 247.879 841.435 236.934 838.987 228.366C836.971 238.519 834.127 248.599 830.455 258.608L813.066 305.05ZM957.984 370.07V211.733H1017.39C1029.48 211.733 1039.17 213.353 1046.44 216.593C1053.79 219.761 1059.51 224.694 1063.61 231.39C1067.79 238.014 1069.88 244.963 1069.88 252.235C1069.88 259.004 1068.04 265.376 1064.37 271.352C1060.7 277.329 1055.15 282.153 1047.74 285.825C1057.31 288.633 1064.66 293.422 1069.77 300.19C1074.95 306.958 1077.55 314.951 1077.55 324.167C1077.55 331.584 1075.96 338.496 1072.79 344.904C1069.7 351.241 1065.85 356.137 1061.24 359.593C1056.63 363.049 1050.83 365.678 1043.85 367.478C1036.94 369.206 1028.44 370.07 1018.36 370.07H957.984ZM978.937 278.265H1013.17C1022.46 278.265 1029.12 277.653 1033.16 276.429C1038.48 274.845 1042.48 272.216 1045.14 268.544C1047.88 264.872 1049.25 260.264 1049.25 254.719C1049.25 249.463 1047.99 244.855 1045.47 240.895C1042.95 236.862 1039.35 234.126 1034.67 232.686C1029.99 231.174 1021.96 230.418 1010.58 230.418H978.937V278.265ZM978.937 351.385H1018.36C1025.13 351.385 1029.88 351.133 1032.62 350.629C1037.44 349.765 1041.47 348.325 1044.71 346.309C1047.95 344.292 1050.62 341.376 1052.71 337.56C1054.79 333.672 1055.84 329.208 1055.84 324.167C1055.84 318.263 1054.33 313.151 1051.3 308.83C1048.28 304.438 1044.06 301.378 1038.66 299.65C1033.34 297.85 1025.63 296.95 1015.55 296.95H978.937V351.385ZM1133.25 211.733H1152.26V337.128L1236.51 211.733H1257.57V370.07H1238.56V244.999L1154.2 370.07H1133.25V211.733ZM1330.01 211.733H1429.16V370.07H1408.21V230.418H1350.97V311.963C1350.97 328.524 1350.17 340.656 1348.59 348.361C1347.08 356.065 1343.84 362.077 1338.87 366.398C1333.9 370.646 1327.6 372.77 1319.97 372.77C1315.36 372.77 1309.82 371.906 1303.34 370.178L1306.9 351.601C1310.36 353.041 1313.31 353.761 1315.76 353.761C1320.51 353.761 1324.07 351.997 1326.45 348.469C1328.82 344.868 1330.01 336.444 1330.01 323.195V211.733ZM1472.77 370.07L1533.58 211.733H1556.15L1620.95 370.07H1597.09L1578.62 322.115H1512.41L1495.02 370.07H1472.77ZM1518.46 305.05H1572.14L1555.61 261.2C1550.57 247.879 1546.83 236.934 1544.38 228.366C1542.36 238.519 1539.52 248.599 1535.85 258.608L1518.46 305.05Z" fill="white"/>
<path d="M-467 302.844C-467 302.844 -95.0361 241.041 146.311 433.031C387.658 625.022 560.336 686.968 825.288 532.889C1090.24 378.81 1370.64 742.334 1749.76 657.926C2128.88 573.519 2443.62 324.59 2443.62 324.59" stroke="#FFBA08" stroke-width="4.29189" stroke-miterlimit="10"/>
<path d="M-463.281 299.553C-463.281 299.553 -89.1715 258.78 158.185 437.466C405.54 616.152 545.456 686.825 811.124 536.895C1076.79 386.965 1329.01 721.875 1726.3 652.776C2123.58 583.677 2449.77 287.393 2449.77 287.393" stroke="#FBA907" stroke-width="4.29189" stroke-miterlimit="10"/>
<path d="M-459.559 296.406C-459.559 296.406 -83.3028 276.52 169.919 442.044C423.14 607.568 530.294 686.682 796.964 541.044C1063.63 395.406 1287.38 701.704 1702.98 647.769C2118.58 593.834 2456.07 250.197 2456.07 250.197" stroke="#F69807" stroke-width="4.29189" stroke-miterlimit="10"/>
<path d="M-455.842 293.116C-455.842 293.116 -77.297 294.26 181.647 446.479C440.591 598.698 515.127 686.396 782.655 544.906C1050.18 403.417 1245.75 681.246 1679.37 642.475C2113 603.705 2461.93 212.857 2461.93 212.857" stroke="#F28706" stroke-width="4.29189" stroke-miterlimit="10"/>
<path d="M-452.121 289.825C-452.121 289.825 -71.4303 312 193.522 450.914C458.475 589.828 500.106 686.253 768.493 548.912C1036.88 411.572 1204.12 660.93 1656.06 637.325C2107.99 613.72 2468.22 175.661 2468.22 175.661" stroke="#EE7605" stroke-width="4.29189" stroke-miterlimit="10"/>
<path d="M-448.402 286.535C-448.402 286.535 -65.5657 329.597 205.253 455.349C476.071 581.101 484.941 685.967 754.328 552.775C1023.72 419.583 1162.63 640.329 1632.59 632.175C2102.55 624.02 2474.38 138.321 2474.38 138.321" stroke="#EA6504" stroke-width="4.29189" stroke-miterlimit="10"/>
<path d="M-444.826 283.244C-444.826 283.244 -59.7005 347.336 216.84 459.784C493.381 572.232 469.633 685.824 739.879 556.781C1010.12 427.738 1120.71 620.015 1608.99 627.025C2097.26 634.035 2480.38 101.125 2480.38 101.125" stroke="#E55504" stroke-width="4.29189" stroke-miterlimit="10"/>
<path d="M-441.105 279.954C-441.105 279.954 -53.8339 365.076 228.573 464.362C510.979 563.648 454.469 685.681 725.717 560.786C996.964 435.892 1079.23 599.7 1585.53 621.874C2091.83 644.049 2486.39 63.9286 2486.39 63.9286" stroke="#E14403" stroke-width="4.29189" stroke-miterlimit="10"/>
<path d="M-437.385 276.663C-437.385 276.663 -47.9672 382.673 240.448 468.797C528.863 554.921 439.448 685.394 711.554 564.792C983.66 444.19 1037.6 579.385 1562.21 616.867C2086.82 654.35 2492.69 26.8752 2492.69 26.8752" stroke="#DD3302" stroke-width="4.29189" stroke-miterlimit="10"/>
<path d="M-433.668 273.373C-433.668 273.373 -42.1044 400.413 252.176 473.232C546.457 546.051 424.281 685.251 697.245 568.655C970.209 452.059 995.961 558.927 1538.6 611.574C2081.24 664.221 2498.84 -10.6072 2498.84 -10.6072" stroke="#D92201" stroke-width="4.29189" stroke-miterlimit="10"/>
<path d="M-429.945 270.082C-429.945 270.082 -36.0928 418.153 263.91 477.667C563.913 537.181 409.119 684.965 683.085 572.661C957.051 460.356 954.332 538.469 1515.28 606.424C2076.23 674.379 2504.99 -47.8036 2504.99 -47.8036" stroke="#D41101" stroke-width="4.29189" stroke-miterlimit="10"/>
<path d="M-426.227 266.792C-426.227 266.792 -30.2281 435.749 275.641 482.102C581.509 528.454 394.097 684.822 668.778 576.523C943.459 468.225 912.7 518.154 1491.82 601.273C2070.94 684.393 2511 -85 2511 -85" stroke="#D00000" stroke-width="4.29189" stroke-miterlimit="10"/>
</g>
<defs>
<clipPath id="clip0_115_1747">
<rect width="1920" height="744" fill="white"/>
</clipPath>
</defs>
</svg>
