<svg width="1920" height="570" viewBox="0 0 1920 570" fill="none" xmlns="http://www.w3.org/2000/svg">
<g clip-path="url(#clip0_116_1812)">
<path d="M-467 141.844C-467 141.844 -95.0361 80.0406 146.311 272.031C387.658 464.022 560.336 525.968 825.288 371.889C1090.24 217.81 1370.64 581.333 1749.76 496.926C2128.88 412.519 2443.62 163.589 2443.62 163.589" stroke="#FFBA08" stroke-width="4.29189" stroke-miterlimit="10"/>
<path d="M-463.281 138.553C-463.281 138.553 -89.1715 97.7805 158.185 276.466C405.54 455.152 545.456 525.825 811.124 375.895C1076.79 225.965 1329.01 560.875 1726.3 491.776C2123.58 422.677 2449.77 126.393 2449.77 126.393" stroke="#FBA907" stroke-width="4.29189" stroke-miterlimit="10"/>
<path d="M-459.559 135.406C-459.559 135.406 -83.3028 115.52 169.919 281.044C423.14 446.568 530.294 525.682 796.964 380.044C1063.63 234.406 1287.38 540.704 1702.98 486.769C2118.58 432.834 2456.07 89.1967 2456.07 89.1967" stroke="#F69807" stroke-width="4.29189" stroke-miterlimit="10"/>
<path d="M-455.842 132.116C-455.842 132.116 -77.297 133.26 181.647 285.479C440.591 437.698 515.127 525.396 782.655 383.906C1050.18 242.417 1245.75 520.246 1679.37 481.475C2113 442.705 2461.93 51.8572 2461.93 51.8572" stroke="#F28706" stroke-width="4.29189" stroke-miterlimit="10"/>
<path d="M-452.121 128.825C-452.121 128.825 -71.4303 151 193.522 289.914C458.475 428.828 500.106 525.253 768.493 387.912C1036.88 250.572 1204.12 499.931 1656.06 476.325C2107.99 452.72 2468.22 14.6608 2468.22 14.6608" stroke="#EE7605" stroke-width="4.29189" stroke-miterlimit="10"/>
<path d="M-448.402 125.535C-448.402 125.535 -65.5657 168.597 205.253 294.349C476.071 420.101 484.941 524.967 754.328 391.775C1023.72 258.583 1162.63 479.33 1632.59 471.175C2102.55 463.02 2474.38 -22.6786 2474.38 -22.6786" stroke="#EA6504" stroke-width="4.29189" stroke-miterlimit="10"/>
<path d="M-444.826 122.244C-444.826 122.244 -59.7005 186.336 216.84 298.784C493.381 411.231 469.633 524.824 739.879 395.781C1010.12 266.738 1120.71 459.014 1608.99 466.025C2097.26 473.035 2480.38 -59.8751 2480.38 -59.8751" stroke="#E55504" stroke-width="4.29189" stroke-miterlimit="10"/>
<path d="M-441.105 118.954C-441.105 118.954 -53.8339 204.076 228.573 303.362C510.979 402.648 454.469 524.681 725.717 399.786C996.964 274.892 1079.23 438.7 1585.53 460.874C2091.83 483.049 2486.39 -97.0714 2486.39 -97.0714" stroke="#E14403" stroke-width="4.29189" stroke-miterlimit="10"/>
<path d="M-437.385 115.663C-437.385 115.663 -47.9672 221.673 240.448 307.797C528.863 393.921 439.448 524.394 711.554 403.792C983.66 283.19 1037.6 418.385 1562.21 455.867C2086.82 493.35 2492.69 -134.125 2492.69 -134.125" stroke="#DD3302" stroke-width="4.29189" stroke-miterlimit="10"/>
<path d="M-433.668 112.373C-433.668 112.373 -42.1044 239.413 252.176 312.232C546.457 385.051 424.281 524.251 697.245 407.655C970.209 291.059 995.961 397.927 1538.6 450.574C2081.24 503.221 2498.84 -171.607 2498.84 -171.607" stroke="#D92201" stroke-width="4.29189" stroke-miterlimit="10"/>
<path d="M-429.945 109.082C-429.945 109.082 -36.0928 257.153 263.91 316.667C563.913 376.181 409.119 523.965 683.085 411.661C957.051 299.356 954.332 377.469 1515.28 445.424C2076.23 513.379 2504.99 -208.804 2504.99 -208.804" stroke="#D41101" stroke-width="4.29189" stroke-miterlimit="10"/>
<path d="M-426.227 105.792C-426.227 105.792 -30.2281 274.749 275.641 321.102C581.509 367.454 394.097 523.822 668.778 415.523C943.459 307.225 912.7 357.154 1491.82 440.273C2070.94 523.393 2511 -246 2511 -246" stroke="#D00000" stroke-width="4.29189" stroke-miterlimit="10"/>
<path d="M594.86 150.53H673.119V250.034H659.883V162.273H608.027V250.034H594.86V150.53ZM711.315 250.034V150.53H748.85C755.456 150.53 760.501 150.847 763.985 151.481C768.872 152.295 772.967 153.856 776.271 156.164C779.574 158.426 782.221 161.617 784.212 165.734C786.248 169.852 787.266 174.377 787.266 179.309C787.266 187.771 784.574 194.943 779.189 200.825C773.805 206.662 764.076 209.581 750.003 209.581H724.483V250.034H711.315ZM724.483 197.839H750.207C758.714 197.839 764.755 196.255 768.329 193.087C771.904 189.92 773.691 185.463 773.691 179.716C773.691 175.553 772.628 172.001 770.501 169.06C768.42 166.074 765.66 164.105 762.221 163.155C760.004 162.567 755.908 162.273 749.936 162.273H724.483V197.839ZM800.417 250.034L838.631 150.53H852.816L893.541 250.034H878.54L866.934 219.898H825.327L814.4 250.034H800.417ZM829.128 209.174H862.862L852.477 181.617C849.309 173.246 846.956 166.368 845.418 160.983C844.151 167.363 842.364 173.698 840.056 179.988L829.128 209.174ZM920.199 250.034V150.53H957.529C965.131 150.53 971.217 151.549 975.788 153.585C980.403 155.576 984 158.675 986.579 162.884C989.204 167.046 990.516 171.413 990.516 175.983C990.516 180.237 989.362 184.241 987.055 187.997C984.747 191.753 981.263 194.784 976.602 197.092C982.62 198.857 987.236 201.866 990.448 206.119C993.706 210.373 995.335 215.395 995.335 221.187C995.335 225.848 994.34 230.192 992.349 234.219C990.403 238.201 987.982 241.278 985.086 243.45C982.19 245.622 978.548 247.273 974.159 248.405C969.815 249.491 964.475 250.034 958.14 250.034H920.199ZM933.366 192.341H954.882C960.719 192.341 964.905 191.956 967.439 191.187C970.787 190.191 973.299 188.54 974.973 186.232C976.692 183.924 977.552 181.028 977.552 177.544C977.552 174.241 976.76 171.345 975.177 168.856C973.593 166.322 971.33 164.603 968.389 163.698C965.448 162.748 960.403 162.273 953.253 162.273H933.366V192.341ZM933.366 238.291H958.14C962.394 238.291 965.38 238.133 967.1 237.816C970.131 237.273 972.665 236.368 974.702 235.101C976.738 233.834 978.412 232.002 979.724 229.604C981.036 227.16 981.693 224.355 981.693 221.187C981.693 217.477 980.742 214.264 978.842 211.549C976.941 208.789 974.294 206.866 970.901 205.78C967.552 204.649 962.71 204.083 956.376 204.083H933.366V238.291ZM1030.34 150.53H1042.29V229.332L1095.23 150.53H1108.46V250.034H1096.52V171.436L1043.51 250.034H1030.34V150.53ZM1153.99 150.53H1216.3V250.034H1203.13V162.273H1167.16V213.517C1167.16 223.925 1166.66 231.549 1165.67 236.391C1164.72 241.233 1162.68 245.011 1159.56 247.726C1156.44 250.396 1152.48 251.731 1147.68 251.731C1144.78 251.731 1141.3 251.188 1137.23 250.102L1139.47 238.427C1141.64 239.332 1143.49 239.785 1145.03 239.785C1148.02 239.785 1150.26 238.676 1151.75 236.459C1153.25 234.196 1153.99 228.902 1153.99 220.576V150.53ZM1243.71 250.034L1281.92 150.53H1296.1L1336.83 250.034H1321.83L1310.22 219.898H1268.61L1257.69 250.034H1243.71ZM1272.42 209.174H1306.15L1295.76 181.617C1292.6 173.246 1290.24 166.368 1288.71 160.983C1287.44 167.363 1285.65 173.698 1283.34 179.988L1272.42 209.174Z" fill="white"/>
</g>
<defs>
<clipPath id="clip0_116_1812">
<rect width="1920" height="570" fill="white"/>
</clipPath>
</defs>
</svg>
