<svg width="1920" height="528" viewBox="0 0 1920 528" fill="none" xmlns="http://www.w3.org/2000/svg">
<path d="M485.579 227.588L497.435 230.583C494.95 240.32 490.468 247.755 483.99 252.889C477.553 257.981 469.67 260.528 460.34 260.528C450.684 260.528 442.821 258.572 436.75 254.661C430.721 250.709 426.117 245.005 422.939 237.55C419.802 230.094 418.233 222.088 418.233 213.532C418.233 204.203 420.006 196.075 423.55 189.149C427.135 182.182 432.208 176.906 438.767 173.321C445.367 169.695 452.619 167.882 460.523 167.882C469.486 167.882 477.024 170.163 483.135 174.726C489.246 179.289 493.503 185.706 495.907 193.976L484.235 196.727C482.157 190.208 479.142 185.462 475.19 182.487C471.238 179.513 466.268 178.026 460.279 178.026C453.393 178.026 447.628 179.676 442.984 182.976C438.38 186.276 435.141 190.717 433.267 196.299C431.393 201.84 430.456 207.564 430.456 213.471C430.456 221.09 431.556 227.751 433.756 233.455C435.997 239.118 439.46 243.355 444.145 246.166C448.83 248.978 453.903 250.383 459.362 250.383C466.003 250.383 471.625 248.468 476.229 244.639C480.833 240.809 483.95 235.125 485.579 227.588ZM545.76 259V179.982H516.243V169.409H587.255V179.982H557.616V259H545.76ZM605.452 169.409H617.43L646.642 224.288L672.187 169.409H683.982L650.37 239.077C646.173 247.796 642.731 253.5 640.042 256.189C637.353 258.878 633.503 260.222 628.492 260.222C625.436 260.222 621.688 259.509 617.247 258.083V247.939C620.425 249.772 623.786 250.689 627.33 250.689C630.223 250.689 632.708 249.772 634.786 247.939C636.905 246.065 639.227 241.827 641.753 235.227L605.452 169.409ZM711.59 169.409H766.102V248.428H774.169V279.9H763.596V259H704.378V279.9H693.806V248.428H700.773C707.984 237.55 711.59 215.57 711.59 182.487V169.409ZM754.246 179.982H723.018V184.565C723.018 192.184 722.325 202.614 720.94 215.855C719.595 229.055 716.927 239.913 712.934 248.428H754.246V179.982ZM803.549 259V169.409H868.328V179.982H815.405V207.421H864.967V217.933H815.405V248.428H870.406V259H803.549ZM902.17 259V169.409H914.025V206.199H960.593V169.409H972.449V259H960.593V216.771H914.025V259H902.17ZM1030.06 259V179.982H1000.55V169.409H1071.56V179.982H1041.92V259H1030.06ZM1148.84 169.409H1206.77V179.982H1160.69V259H1148.84V169.409ZM1220.81 215.366C1220.81 200.495 1224.8 188.863 1232.79 180.471C1240.78 172.037 1251.08 167.82 1263.71 167.82C1271.98 167.82 1279.44 169.796 1286.08 173.748C1292.72 177.7 1297.77 183.221 1301.24 190.31C1304.74 197.358 1306.49 205.364 1306.49 214.327C1306.49 223.412 1304.66 231.54 1300.99 238.711C1297.32 245.881 1292.13 251.32 1285.41 255.028C1278.69 258.694 1271.43 260.528 1263.65 260.528C1255.22 260.528 1247.68 258.491 1241.04 254.417C1234.4 250.342 1229.37 244.781 1225.95 237.733C1222.52 230.685 1220.81 223.229 1220.81 215.366ZM1233.03 215.549C1233.03 226.346 1235.93 234.861 1241.71 241.094C1247.54 247.287 1254.83 250.383 1263.59 250.383C1272.51 250.383 1279.85 247.246 1285.59 240.972C1291.38 234.698 1294.27 225.796 1294.27 214.266C1294.27 206.973 1293.03 200.617 1290.54 195.199C1288.1 189.739 1284.49 185.523 1279.72 182.548C1275 179.534 1269.68 178.026 1263.77 178.026C1255.38 178.026 1248.15 180.919 1242.08 186.704C1236.05 192.449 1233.03 202.064 1233.03 215.549ZM1342.17 169.409H1396.68V248.428H1404.75V279.9H1394.17V259H1334.95V279.9H1324.38V248.428H1331.35C1338.56 237.55 1342.17 215.57 1342.17 182.487V169.409ZM1384.82 179.982H1353.59V184.565C1353.59 192.184 1352.9 202.614 1351.52 215.855C1350.17 229.055 1347.5 239.913 1343.51 248.428H1384.82V179.982ZM1424.04 259L1458.45 169.409H1471.22L1507.89 259H1494.38L1483.93 231.866H1446.47L1436.63 259H1424.04ZM1449.89 222.21H1480.27L1470.92 197.399C1468.06 189.862 1465.94 183.669 1464.56 178.821C1463.42 184.565 1461.81 190.269 1459.73 195.932L1449.89 222.21Z" fill="white"/>
<path d="M360 327.102C428.912 311.084 639.961 294.758 932.859 357.597C1225.76 420.434 1472.99 337.575 1560 288.291" stroke="#FFBA08" stroke-width="3.70739"/>
<path d="M360 327.102C470.107 334.801 772.32 311.393 841.617 382.547C936.243 479.708 1335.94 312.707 1380.98 327.102C1426.03 341.495 1495.32 374.23 1560 288.291" stroke="#D00000" stroke-width="3.70739"/>
<path d="M360 327.102C462.542 333.23 741.533 311.354 813.699 375.57C908.662 463.193 1280.99 314.054 1336.17 330.151C1406 349.389 1493.08 370.565 1560 288.291" stroke="#D51301" stroke-width="3.70739"/>
<path d="M360 327.102C454.977 331.66 710.744 311.315 785.779 368.593C881.08 446.676 1226.03 315.401 1291.36 333.201C1385.97 357.282 1490.86 366.898 1560 288.291" stroke="#D92502" stroke-width="3.70739"/>
<path d="M360 327.102C447.412 330.089 679.958 311.277 757.862 361.616C853.497 430.161 1171.08 316.748 1246.54 336.25C1365.94 365.176 1488.62 363.233 1560 288.291" stroke="#DE3802" stroke-width="3.70739"/>
<path d="M360 327.102C439.847 328.518 649.171 311.238 729.944 354.639C825.917 413.644 1116.13 318.096 1201.73 339.3C1345.92 373.071 1486.38 359.568 1560 288.291" stroke="#E34A03" stroke-width="3.70739"/>
<path d="M360 327.102C432.282 326.947 618.382 311.2 702.026 347.663C798.334 397.129 1061.17 319.441 1156.92 342.349C1325.89 380.965 1484.17 355.902 1560 288.291" stroke="#E85D04" stroke-width="3.70739"/>
<path d="M360 327.102C424.717 325.376 587.596 311.161 674.107 340.686C770.751 380.613 1006.22 320.789 1112.11 345.399C1305.86 388.858 1481.92 352.237 1560 288.291" stroke="#EC7005" stroke-width="3.70739"/>
<path d="M360 327.102C417.152 323.805 556.809 311.123 646.189 333.709C743.168 364.096 951.269 322.136 1067.3 348.448C1285.84 396.752 1479.68 348.572 1560 288.291" stroke="#F18206" stroke-width="3.70739"/>
<path d="M360 327.102C409.587 322.234 526.02 311.084 618.271 326.732C715.588 347.581 896.316 323.483 1022.48 351.498C1265.81 404.645 1477.47 344.905 1560 288.291" stroke="#F69506" stroke-width="3.70739"/>
<path d="M360 327.102C402.022 320.663 495.234 311.045 590.354 319.756C688.005 331.064 841.363 324.831 977.671 354.547C1245.78 412.538 1475.23 341.24 1560 288.291" stroke="#FAA707" stroke-width="3.70739"/>
</svg>
