<svg width="1920" height="360" viewBox="0 0 1920 360" fill="none" xmlns="http://www.w3.org/2000/svg">
<g clip-path="url(#clip0_117_1974)">
<path d="M620 206.052C656.81 190.041 769.546 173.723 926.002 236.532C1082.46 299.341 1214.52 216.52 1261 167.258" stroke="#FFBA08" stroke-width="3.70739"/>
<path d="M620 206.052C678.815 213.747 840.247 190.349 877.264 261.471C927.81 358.588 1141.31 191.663 1165.37 206.052C1189.44 220.438 1226.45 253.158 1261 167.258" stroke="#D00000" stroke-width="3.70739"/>
<path d="M620 206.052C674.774 212.177 823.802 190.311 862.351 254.497C913.077 342.08 1111.96 193.01 1141.44 209.1C1178.74 228.328 1225.25 249.495 1261 167.258" stroke="#D51301" stroke-width="3.70739"/>
<path d="M620 206.052C670.733 210.607 807.356 190.272 847.437 247.524C898.343 325.571 1082.61 194.356 1117.5 212.148C1168.04 236.218 1224.07 245.83 1261 167.258" stroke="#D92502" stroke-width="3.70739"/>
<path d="M620 206.052C666.692 209.037 790.911 190.234 832.525 240.55C883.61 309.063 1053.25 195.702 1093.56 215.196C1157.34 244.108 1222.87 242.167 1261 167.258" stroke="#DE3802" stroke-width="3.70739"/>
<path d="M620 206.052C662.651 207.467 774.466 190.195 817.612 233.577C868.877 292.554 1023.9 197.05 1069.63 218.244C1146.64 252 1221.68 238.503 1261 167.258" stroke="#E34A03" stroke-width="3.70739"/>
<path d="M620 206.052C658.611 205.896 758.019 190.157 802.699 226.603C854.143 276.046 994.544 198.394 1045.69 221.292C1135.95 259.89 1220.49 234.838 1261 167.258" stroke="#E85D04" stroke-width="3.70739"/>
<path d="M620 206.052C654.57 204.326 741.574 190.118 787.785 219.629C839.41 259.539 965.19 199.741 1021.75 224.34C1125.25 267.78 1219.29 231.175 1261 167.258" stroke="#EC7005" stroke-width="3.70739"/>
<path d="M620 206.052C650.529 202.756 725.129 190.079 772.873 212.656C824.676 243.029 935.836 201.088 997.814 227.388C1114.55 275.669 1218.1 227.512 1261 167.258" stroke="#F18206" stroke-width="3.70739"/>
<path d="M620 206.052C646.488 201.186 708.683 190.041 757.96 205.682C809.943 226.522 906.482 202.435 973.876 230.436C1103.85 283.559 1216.91 223.847 1261 167.258" stroke="#F69506" stroke-width="3.70739"/>
<path d="M620 206.052C642.447 199.616 692.237 190.002 743.047 198.708C795.21 210.012 877.128 203.781 949.939 233.484C1093.16 291.449 1215.72 220.184 1261 167.258" stroke="#FAA707" stroke-width="3.70739"/>
<path d="M747.953 124.808L753.263 126.149C752.149 130.51 750.142 133.84 747.241 136.139C744.358 138.42 740.828 139.56 736.649 139.56C732.325 139.56 728.803 138.685 726.085 136.933C723.384 135.163 721.322 132.609 719.899 129.27C718.494 125.93 717.792 122.345 717.792 118.513C717.792 114.335 718.585 110.695 720.173 107.593C721.779 104.473 724.05 102.11 726.988 100.504C729.944 98.8803 733.192 98.0684 736.731 98.0684C740.746 98.0684 744.121 99.0901 746.858 101.134C749.595 103.177 751.502 106.051 752.578 109.755L747.351 110.987C746.42 108.067 745.07 105.942 743.3 104.61C741.53 103.278 739.304 102.612 736.622 102.612C733.538 102.612 730.956 103.351 728.876 104.829C726.814 106.307 725.364 108.295 724.525 110.795C723.685 113.277 723.266 115.84 723.266 118.486C723.266 121.898 723.758 124.881 724.744 127.436C725.747 129.972 727.298 131.87 729.396 133.129C731.495 134.388 733.766 135.017 736.211 135.017C739.185 135.017 741.703 134.16 743.765 132.444C745.827 130.729 747.223 128.184 747.953 124.808ZM774.905 138.876V103.488H761.686V98.7526H793.489V103.488H780.215V138.876H774.905ZM801.639 98.7526H807.003L820.086 123.33L831.526 98.7526H836.808L821.755 129.954C819.876 133.858 818.334 136.413 817.13 137.617C815.925 138.821 814.201 139.424 811.957 139.424C810.588 139.424 808.91 139.104 806.921 138.466V133.922C808.344 134.743 809.849 135.154 811.437 135.154C812.732 135.154 813.845 134.743 814.776 133.922C815.725 133.083 816.765 131.185 817.896 128.23L801.639 98.7526ZM849.173 98.7526H873.586V134.141H877.199V148.237H872.464V138.876H845.943V148.237H841.208V134.141H844.328C847.558 129.27 849.173 119.426 849.173 104.61V98.7526ZM868.277 103.488H854.291V105.54C854.291 108.952 853.981 113.623 853.36 119.553C852.758 125.465 851.563 130.328 849.775 134.141H868.277V103.488ZM890.357 138.876V98.7526H919.369V103.488H895.667V115.776H917.864V120.484H895.667V134.141H920.299V138.876H890.357ZM934.525 138.876V98.7526H939.835V115.229H960.69V98.7526H966V138.876H960.69V119.964H939.835V138.876H934.525ZM991.803 138.876V103.488H978.583V98.7526H1010.39V103.488H997.112V138.876H991.803ZM1045 98.7526H1070.94V103.488H1050.31V138.876H1045V98.7526ZM1077.23 119.334C1077.23 112.675 1079.02 107.465 1082.59 103.706C1086.17 99.9295 1090.79 98.041 1096.44 98.041C1100.15 98.041 1103.49 98.9259 1106.46 100.696C1109.44 102.466 1111.7 104.938 1113.25 108.113C1114.82 111.27 1115.6 114.855 1115.6 118.869C1115.6 122.938 1114.78 126.578 1113.14 129.79C1111.5 133.001 1109.17 135.437 1106.16 137.097C1103.15 138.739 1099.9 139.56 1096.42 139.56C1092.64 139.56 1089.26 138.648 1086.29 136.824C1083.32 134.999 1081.06 132.508 1079.53 129.352C1078 126.195 1077.23 122.856 1077.23 119.334ZM1082.7 119.417C1082.7 124.252 1084 128.065 1086.59 130.857C1089.2 133.63 1092.47 135.017 1096.39 135.017C1100.39 135.017 1103.67 133.612 1106.24 130.802C1108.83 127.992 1110.13 124.005 1110.13 118.842C1110.13 115.576 1109.57 112.729 1108.46 110.303C1107.36 107.857 1105.75 105.969 1103.61 104.637C1101.5 103.287 1099.12 102.612 1096.47 102.612C1092.71 102.612 1089.47 103.907 1086.76 106.498C1084.05 109.071 1082.7 113.377 1082.7 119.417ZM1131.58 98.7526H1155.99V134.141H1159.61V148.237H1154.87V138.876H1128.35V148.237H1123.62V134.141H1126.74C1129.96 129.27 1131.58 119.426 1131.58 104.61V98.7526ZM1150.68 103.488H1136.7V105.54C1136.7 108.952 1136.39 113.623 1135.77 119.553C1135.17 125.465 1133.97 130.328 1132.18 134.141H1150.68V103.488ZM1168.25 138.876L1183.66 98.7526H1189.38L1205.8 138.876H1199.75L1195.07 126.724H1178.29L1173.89 138.876H1168.25ZM1179.83 122.4H1193.43L1189.24 111.288C1187.96 107.912 1187.01 105.139 1186.39 102.967C1185.88 105.54 1185.16 108.095 1184.23 110.631L1179.83 122.4Z" fill="white"/>
</g>
<defs>
<clipPath id="clip0_117_1974">
<rect width="1920" height="360" fill="white"/>
</clipPath>
</defs>
</svg>
